<svg width="44" height="44" viewBox="0 0 44 44" fill="none" xmlns="http://www.w3.org/2000/svg">
<path d="M44 22C44 34.1503 34.1503 44 22 44C9.84974 44 0 34.1503 0 22C0 9.84974 9.84974 0 22 0C34.1503 0 44 9.84974 44 22Z" fill="#F9FAFB"/>
<path d="M39.8749 22.105C39.8749 32.1042 31.7694 40.21 21.7708 40.21C11.7721 40.21 3.6666 32.1042 3.6666 22.105C3.6666 12.1059 11.7721 4.00004 21.7708 4.00004C31.7694 4.00004 39.8749 12.1059 39.8749 22.105Z" fill="#F2F4F7"/>
<path d="M21.9475 20.9754C21.9272 20.9469 21.9012 20.9239 21.8716 20.9081C21.842 20.8923 21.8095 20.884 21.7766 20.884C21.7436 20.884 21.7111 20.8923 21.6815 20.9081C21.6519 20.9239 21.626 20.9469 21.6057 20.9754L18.5677 25.1931C18.5427 25.2282 18.5271 25.2704 18.5229 25.3147C18.5186 25.359 18.5258 25.4038 18.5437 25.4438C18.5615 25.4839 18.5892 25.5176 18.6237 25.5412C18.6582 25.5648 18.698 25.5772 18.7386 25.5771C19.8457 25.5771 20.7431 26.4746 20.7431 27.5816V32.7922C20.7431 32.9232 20.8408 33.0303 20.9601 33.0303H22.5876C22.707 33.0303 22.8046 32.9232 22.8046 32.7922V27.59C22.8046 26.48 23.7045 25.5801 24.8145 25.5801C24.9963 25.5801 25.0966 25.3509 24.9854 25.1961L21.9475 20.9754Z" fill="#5C6879"/>
<path d="M33.9282 24.9061C33.9282 20.1851 29.3415 15.6018 25.0255 13.6887C24.0233 13.2445 22.9285 13 21.7818 13C20.6394 13 19.5484 13.2424 18.5493 13.6831C14.2247 15.5905 9.62451 20.1795 9.62451 24.9061C9.62451 28.1952 12.0522 30.8592 15.0467 30.8592H16.1344C16.2538 30.8592 16.3514 30.752 16.3514 30.6211V28.8351C16.3514 28.7042 16.2538 28.597 16.1344 28.597H15.0467C14.1326 28.597 13.2728 28.1982 12.6326 27.4749C11.9952 26.7546 11.6562 25.7842 11.686 24.7781C11.7104 23.9923 11.9545 23.2542 12.3967 22.6321C12.8496 21.9981 13.4844 21.5367 14.1896 21.3313C14.834 21.1466 15.3481 20.6595 15.5674 20.026L15.5947 19.9472C15.8279 19.2686 16.1534 18.6346 16.563 18.0601C16.9674 17.4907 17.4463 16.9902 17.9843 16.5748C19.0992 15.7146 20.412 15.2592 21.7818 15.2592C23.1516 15.2592 24.4644 15.7146 25.5793 16.5748C26.119 16.9915 26.5964 17.4916 27.0006 18.0601C27.4102 18.6346 27.7357 19.2716 27.9689 19.9472L27.9955 20.0242C28.2135 20.6572 28.7256 21.1447 29.3686 21.3313C30.8387 21.7659 31.8668 23.2333 31.8668 24.9061C31.8668 25.8914 31.5168 26.82 30.8821 27.5165C30.5709 27.8601 30.2006 28.1325 29.7927 28.318C29.3848 28.5035 28.9475 28.5983 28.506 28.597H27.4183C27.299 28.597 27.2013 28.7042 27.2013 28.8351V30.6211C27.2013 30.752 27.299 30.8592 27.4183 30.8592H28.506C31.5006 30.8592 33.9282 28.1952 33.9282 24.9061Z" fill="#5C6879"/>
</svg>
